<mxfile host="Electron" modified="2024-05-11T16:16:17.269Z" agent="Mozilla/5.0 (X11; Linux x86_64) AppleWebKit/537.36 (KHTML, like Gecko) draw.io/24.2.5 Chrome/120.0.6099.109 Electron/28.1.0 Safari/537.36" etag="40U4ZpdS_Vf8gj09n2Sz" version="24.2.5" type="device">
  <diagram name="Pagina-1" id="si0wQ0l1tiX7Fm2jgNS1">
    <mxGraphModel dx="1195" dy="700" grid="1" gridSize="10" guides="1" tooltips="1" connect="1" arrows="1" fold="1" page="1" pageScale="1" pageWidth="1169" pageHeight="827" math="0" shadow="0">
      <root>
        <mxCell id="0" />
        <mxCell id="1" parent="0" />
        <mxCell id="SEvlTrCsdEUN2cWhINHB-1" value="Utente" style="shape=umlActor;verticalLabelPosition=bottom;verticalAlign=top;html=1;outlineConnect=0;" vertex="1" parent="1">
          <mxGeometry x="100" y="220" width="30" height="60" as="geometry" />
        </mxCell>
        <mxCell id="SEvlTrCsdEUN2cWhINHB-2" value="Registrazione" style="ellipse;whiteSpace=wrap;html=1;" vertex="1" parent="1">
          <mxGeometry x="280" y="150" width="140" height="50" as="geometry" />
        </mxCell>
        <mxCell id="SEvlTrCsdEUN2cWhINHB-3" value="Prenotazione_Voli" style="ellipse;whiteSpace=wrap;html=1;" vertex="1" parent="1">
          <mxGeometry x="280" y="220" width="140" height="50" as="geometry" />
        </mxCell>
        <mxCell id="SEvlTrCsdEUN2cWhINHB-4" value="" style="endArrow=none;html=1;rounded=0;" edge="1" parent="1" source="SEvlTrCsdEUN2cWhINHB-1" target="SEvlTrCsdEUN2cWhINHB-2">
          <mxGeometry width="50" height="50" relative="1" as="geometry">
            <mxPoint x="170" y="250" as="sourcePoint" />
            <mxPoint x="220" y="200" as="targetPoint" />
          </mxGeometry>
        </mxCell>
        <mxCell id="SEvlTrCsdEUN2cWhINHB-6" value="" style="endArrow=none;html=1;rounded=0;" edge="1" parent="1" source="SEvlTrCsdEUN2cWhINHB-1" target="SEvlTrCsdEUN2cWhINHB-3">
          <mxGeometry width="50" height="50" relative="1" as="geometry">
            <mxPoint x="140" y="218" as="sourcePoint" />
            <mxPoint x="295" y="195" as="targetPoint" />
          </mxGeometry>
        </mxCell>
        <mxCell id="SEvlTrCsdEUN2cWhINHB-7" value="Sistema&lt;br&gt;prenotazioni" style="shape=umlActor;verticalLabelPosition=bottom;verticalAlign=top;html=1;outlineConnect=0;" vertex="1" parent="1">
          <mxGeometry x="100" y="370" width="30" height="60" as="geometry" />
        </mxCell>
        <mxCell id="SEvlTrCsdEUN2cWhINHB-8" value="Frequent_Flyers" style="ellipse;whiteSpace=wrap;html=1;" vertex="1" parent="1">
          <mxGeometry x="280" y="290" width="140" height="50" as="geometry" />
        </mxCell>
        <mxCell id="SEvlTrCsdEUN2cWhINHB-9" value="" style="endArrow=none;html=1;rounded=0;" edge="1" parent="1" source="SEvlTrCsdEUN2cWhINHB-1" target="SEvlTrCsdEUN2cWhINHB-8">
          <mxGeometry width="50" height="50" relative="1" as="geometry">
            <mxPoint x="140" y="222" as="sourcePoint" />
            <mxPoint x="295" y="245" as="targetPoint" />
          </mxGeometry>
        </mxCell>
        <mxCell id="SEvlTrCsdEUN2cWhINHB-10" value="Posti_Voli" style="ellipse;whiteSpace=wrap;html=1;" vertex="1" parent="1">
          <mxGeometry x="280" y="360" width="140" height="50" as="geometry" />
        </mxCell>
        <mxCell id="SEvlTrCsdEUN2cWhINHB-12" value="Costo_Biglietti" style="ellipse;whiteSpace=wrap;html=1;" vertex="1" parent="1">
          <mxGeometry x="280" y="430" width="140" height="50" as="geometry" />
        </mxCell>
        <mxCell id="SEvlTrCsdEUN2cWhINHB-13" value="Consiglia_Hotel" style="ellipse;whiteSpace=wrap;html=1;" vertex="1" parent="1">
          <mxGeometry x="280" y="500" width="140" height="50" as="geometry" />
        </mxCell>
        <mxCell id="SEvlTrCsdEUN2cWhINHB-14" value="" style="endArrow=none;html=1;rounded=0;" edge="1" parent="1" source="SEvlTrCsdEUN2cWhINHB-7" target="SEvlTrCsdEUN2cWhINHB-10">
          <mxGeometry width="50" height="50" relative="1" as="geometry">
            <mxPoint x="140" y="264" as="sourcePoint" />
            <mxPoint x="305" y="310" as="targetPoint" />
          </mxGeometry>
        </mxCell>
        <mxCell id="SEvlTrCsdEUN2cWhINHB-15" value="" style="endArrow=none;html=1;rounded=0;" edge="1" parent="1" source="SEvlTrCsdEUN2cWhINHB-7" target="SEvlTrCsdEUN2cWhINHB-12">
          <mxGeometry width="50" height="50" relative="1" as="geometry">
            <mxPoint x="140" y="409" as="sourcePoint" />
            <mxPoint x="291" y="399" as="targetPoint" />
          </mxGeometry>
        </mxCell>
        <mxCell id="SEvlTrCsdEUN2cWhINHB-16" value="" style="endArrow=none;html=1;rounded=0;" edge="1" parent="1" source="SEvlTrCsdEUN2cWhINHB-7" target="SEvlTrCsdEUN2cWhINHB-8">
          <mxGeometry width="50" height="50" relative="1" as="geometry">
            <mxPoint x="140" y="414" as="sourcePoint" />
            <mxPoint x="301" y="451" as="targetPoint" />
          </mxGeometry>
        </mxCell>
        <mxCell id="SEvlTrCsdEUN2cWhINHB-17" value="" style="endArrow=none;html=1;rounded=0;" edge="1" parent="1" source="SEvlTrCsdEUN2cWhINHB-7" target="SEvlTrCsdEUN2cWhINHB-13">
          <mxGeometry width="50" height="50" relative="1" as="geometry">
            <mxPoint x="140" y="405" as="sourcePoint" />
            <mxPoint x="311" y="343" as="targetPoint" />
          </mxGeometry>
        </mxCell>
      </root>
    </mxGraphModel>
  </diagram>
</mxfile>
